<svg id="Layer_1" data-name="Layer 1" xmlns="http://www.w3.org/2000/svg" viewBox="0 0 322.17 323.18"><defs><style>.cls-1{fill:#d18147;}</style></defs><title>LOGO</title><path class="cls-1" d="M972.65,711.4a54.72,54.72,0,0,1-18.66-28c-3.2-11-1.56-21.73,1.19-32.75-.66.72-1.38,1.39-2,2.16a49.39,49.39,0,0,1-21,16.28c-12.33,4.93-19.61,14-20,27.81-5.39-1.79-9-16.45-8-30.6.81-11.36,6.45-20.57,12.68-29.66-4.54,1.83-8.95,4.15-13.65,5.36a67.76,67.76,0,0,1-14.77,1.89c-11.94.37-21.25,4.9-27,15.78a4.76,4.76,0,0,1-2.21,2.1c-1.95-11.47.51-22.1,6-32.15s14.35-16.75,25.46-21.71c-6.79,0-12.56.57-18.15-.18-4.87-.64-9.6-2.61-14.29-4.28-11.25-4-21.57-2.89-30.84,5a9.74,9.74,0,0,1-1.69.94c-1.79-5.48,7.38-20,16.91-27.59,9.29-7.41,20.17-9.86,31.72-10.58-.17-.51-.22-1-.35-1-11.46-2.4-20.68-8.33-29.08-16.47-8.1-7.85-18.21-10-29.16-6-.55.2-1.24,0-3.38,0,7.67-9.94,16.88-15.51,27.54-18.82,11.06-3.44,22-1.89,32.74,2,.14-.71.33-1.19.23-1.27-9-6.52-15.22-14.95-19.57-25.29-4.28-10.18-12.45-16.22-23.87-17.16a4.32,4.32,0,0,1-2.85-1.7c21.93-10.92,42.3-8.93,61.53,7.11a41.76,41.76,0,0,1-3-6c-1.85-5.82-4.76-11.69-4.89-17.6-.32-14.78-3.45-27.44-18.55-34,4.83-4.11,21.4-1.22,32.15,4.84,10.15,5.72,16.72,14.46,22.47,24.6a30.29,30.29,0,0,0-.28-4.48A36.46,36.46,0,0,1,918.44,438c5.61-13.12,6-25.44-3.8-36.85-.16-.19,0-.63,0-2.15a54.63,54.63,0,0,1,27.08,18.29c7.31,8.83,9.87,19.41,10.71,30.57.6-.15,1.13-.17,1.17-.31,2.66-11,8.64-19.87,16.45-28,7.32-7.6,9.06-17.17,6.43-27.45a6.74,6.74,0,0,1,0-3.87c9.2,6.86,15,15.94,18.24,26.78,3.35,11.06,1.33,21.88-1.35,32.92,7-10.18,17-15.73,27.7-20.73,9.08-4.23,14.41-12.11,15.24-22.51a5.51,5.51,0,0,1,1.34-3.25c6.46,9.58,7.69,20.26,6.81,31.4-.91,11.56-6.88,20.84-13.45,30.13,2.43-1.24,4.75-2.93,7.34-3.64,6.18-1.72,12.45-4,18.76-4.22,13.29-.48,24.19-4.24,30.47-16.9.26-.51.89-.84,2.24-2.06a52,52,0,0,1-6,32.19c-5.24,9.88-13.53,16.58-23.17,22.47a48.65,48.65,0,0,0,5,0,45.1,45.1,0,0,1,22.46,3.39c11.74,5,23,4.85,33.16-4a3.27,3.27,0,0,1,2.56-.55c-2.67,10.72-8.56,19.33-16.89,26.39s-18.46,10.29-29.64,12.37a34.81,34.81,0,0,0,3.89,1.78c7.24,2.37,13.73,5.91,19,11.51,9,9.55,19.79,13.1,32.64,9.21a4.8,4.8,0,0,1,1.47-.08c.15,0,.29.16.43.25-1,5.71-13.65,14.62-25.49,18.38-11,3.48-21.65,2-32.34-1.53,0,.92-.19,1.39-.06,1.49,8.58,6.74,14.4,15.28,18.78,25.33s12.66,16.1,24.19,16.61a10.5,10.5,0,0,1,2.32.68c-3.65,5.37-19.1,8.75-31.29,7.5-11.59-1.2-21-6.82-30.2-13.68,1.68,3.51,3.94,6.86,4.92,10.55a86.91,86.91,0,0,1,3,17.56c.63,12.34,4.67,22.4,16.17,28.4a10.24,10.24,0,0,1,1.56,1.17,11.49,11.49,0,0,1,.71,1.53c-11.89,1.51-22.41-1.14-32.41-6.53-10.19-5.5-16.58-14.5-21.91-25.62,0,7,.46,12.94-.15,18.72-.44,4.22-2,8.4-3.53,12.42-4.36,11.61-4,22.46,4.42,32.29.48.56.63,1.4,1.57,3.58a57,57,0,0,1-27.7-18.32c-7.31-8.72-10-19.18-12-30.23-.49,1.3-1,2.58-1.45,3.9-2.34,7.6-6,14.42-11.78,20-9.61,9.19-13.31,20.07-9.15,33.11C972.94,708.77,972.77,709.28,972.65,711.4ZM899.8,549.05a74.54,74.54,0,1,0,149.07.2c.22-40.63-33.68-74.76-74.2-74.72A74.78,74.78,0,0,0,899.8,549.05Zm136.74-130.5c-6.06,4.4-11.73,9.94-18.52,13.09-9.43,4.38-17,10.36-22.47,19-4.26,6.69-7.82,13.75-9.35,21.87l14.1,3.49c2.15-12.89,9.4-21.93,20-28.66a26.48,26.48,0,0,0,5.51-5C1032,435.21,1036.23,427.26,1036.54,418.55Zm-29,201.18c7.56,10.59,8.81,21.88,6.34,34.35-2.23,11.23,1.18,21.76,7.88,31.08a13.23,13.23,0,0,0,2.2,1.93,37.27,37.27,0,0,1,2.57-24.24c5.68-12.57,4.31-25,0-37.43C1023.79,617.54,1015.12,614.79,1007.51,619.73Zm65.57,37.86c-5.88-8.06-7.16-17-7.27-26.61-.14-12.65-6.2-23-14.77-31.84-6.06-6.22-15.11-4.82-18.66,2.6,10.56,6.47,15.62,16.39,18.24,28.36C1053.38,642.69,1061,652.06,1073.08,657.59Zm-150-50c-4.4,4.11-8,8.82-12.73,11.53-5.65,3.24-12.22,5-18.51,7-11.83,3.78-20.49,11.06-26,22.32,7.25-4.83,15-7.81,23.76-7.41,13.75.63,24.82-5.43,34.55-14.35A12.14,12.14,0,0,0,923.08,607.58Zm-19.2-24.68c-10.15,7.27-21.32,8.19-33.56,6.34-6.77-1-14.17.39-21,2-4.67,1.13-8.79,4.53-13.16,6.91l.58,1.66c8.44-2.9,16.64-1.69,24.35,1.73,12.57,5.56,25,4.32,37.36-.09C906.51,598.6,909.09,589.73,903.88,582.9Zm20.68-171.47a37.32,37.32,0,0,1-2.38,24.28c-5.68,12.54-4.37,25,0,37.44,3,8.49,12.37,11.19,18.6,5.4-7.16-10.09-8.41-21.09-6.06-33.2C937.14,432.65,933.38,421.21,924.56,411.43Zm-8,85.51c-10.29-6.25-15.46-15.4-18.16-26.63a60.28,60.28,0,0,0-7.35-16.71,29.94,29.94,0,0,0-13.3-11.92c1.65,7.53,4.47,15.11,4.72,22.77.44,13.67,5.82,24.79,14.61,34.56C902.86,505.44,911.85,504.47,916.56,496.94Zm128.23,18.87c10.13-7.59,21.19-8.58,33-6.23a41.08,41.08,0,0,0,11.93.23,34.26,34.26,0,0,0,21.49-9.91c-8.17,1.1-16,.63-23.4-2.8-12.48-5.77-25-4.42-37.44-.11C1042.29,499.8,1039.6,508.72,1044.79,515.81ZM1106.93,612a15.62,15.62,0,0,0-2.08-2.36,35,35,0,0,1-13.69-17.37c-4.88-12.9-14.77-20.66-26.68-26.26-7.41-3.49-15.47,1-16.72,9.62,13.78,1.49,21.91,10.85,29.7,21.24C1084.4,606.1,1094.32,610.84,1106.93,612ZM1026.44,491.5c6.86-11.22,17-16.64,29.43-18.83a32.72,32.72,0,0,0,10.08-4.15c7.25-4.15,13-9.77,16.13-17.85-8.11,5.77-17.14,6.95-26.61,7.09-12.53.18-22.59,6.36-31.37,14.61C1018.29,477.82,1019.38,486.73,1026.44,491.5Zm-183.83-4.16A42.7,42.7,0,0,1,858,507.39c4.71,12.15,14.22,19.54,25.44,24.86,8.43,4,16.57-.51,17.09-8.83-3-1-6-1.78-8.93-3-7.48-3.08-12.93-8.47-17.49-15.1C866.58,494.41,856.16,488.1,842.61,487.34Zm-13.94,55.07c7.88,2.2,15.15,5.38,20.72,11.43,9.43,10.25,21.6,13.88,34.89,14.61,8.62.48,14.43-6.84,12.05-15.13-12.06,3.07-22.62-.44-32.87-7.09C852.78,539.29,840.92,538.42,828.67,542.41Zm83.74,139.43c4.8-7.11,11-12.5,18.91-15.46,12.72-4.73,20.42-14.47,26.1-26.08,4-8.12-.61-16.63-9.13-17.18-2.2,12.3-9.14,21.36-19.71,27.9a26.18,26.18,0,0,0-5.17,4.65C916.65,663,912.36,671.48,912.41,681.84ZM967.63,695c2.08-8.13,5.55-15.37,11.67-21,10.13-9.36,13.55-21.52,14.14-34.61.41-8.91-6.94-14.48-15-11.92,2.71,11.47-.06,21.76-6.29,31.68a54.2,54.2,0,0,0-6.31,16.1A29.31,29.31,0,0,0,967.63,695ZM1120.48,556.5c-1.75-1-2.23-1.49-2.78-1.59-8.2-1.53-14.51-6.13-20.25-11.93-9.36-9.45-21.33-12.65-34.09-12.7-8.55,0-13.52,7.16-11,14.79,2.08-.25,4.19-.59,6.32-.75,9-.66,17,1.9,24.47,6.79C1094.2,558.34,1106.18,560.61,1120.48,556.5Zm-150.13-85c-2.78-11.8-.09-22.08,6.15-32a53.33,53.33,0,0,0,6.4-16.57c1.36-6.14,1.34-12.61-1.95-18.71a44.1,44.1,0,0,1-12.44,21.24c-9.64,9.25-12.72,21.25-13.29,33.95C954.85,467.75,961.9,473.25,970.35,471.54ZM909.92,592.86c-5.47,10.38-14.43,15.53-23.61,20.35a44.65,44.65,0,0,0-21.19,23,87,87,0,0,0-2.51,8.33l1.19.69c8-13.91,20.44-20.92,35.72-24,7.93-1.6,14.19-6.5,18.65-13.31.8-1.21,1.11-3.73.39-4.77C916.11,599.67,913.09,596.56,909.92,592.86Zm140.67-28.65c11-3.81,21-.14,31.23,2a87,87,0,0,0,22.09,1.57c7.22-.37,14.25-4.48,17-8.25-16.08,4.33-30.12.53-43.36-8.39-6.08-4.1-13.36-4.78-20.67-4-3.61.39-5.65,1.8-5.46,5.94C1051.61,556.52,1051,560,1050.59,564.21Zm55.7,51.76c-.78-.62-1.12-1.11-1.53-1.16-15.6-2.13-26.64-10.83-35.23-23.62-4.61-6.86-11.65-10.81-19.77-12.42-1.38-.27-3.8.39-4.45,1.43-2.26,3.62-4,7.59-6.07,11.82,12,1.3,20.49,8.52,29.23,15.39C1079.55,616.12,1092.05,618.86,1106.29,616ZM1038.4,505.32c8.42-10.85,10.38-12.31,23.13-19.59a69.65,69.65,0,0,0,12.15-8.63c7.1-6.39,12.1-17.15,11.6-23.5-14.61,17-14.63,16.91-37.79,24.13a30.89,30.89,0,0,0-17.13,13c-.74,1.16-1.24,3.48-.6,4.35C1032.36,498.7,1035.45,501.92,1038.4,505.32ZM898.28,565.06c-9.49,6.35-14.13,7.74-26.73,9.29a81.78,81.78,0,0,0-16.49,3.58c-8.85,3-17.86,11.3-20.09,18.26,14-11.52,29.21-11.49,45.15-8.93,7,1.13,13.91-1.18,19.83-5.26,1.24-.86,2.41-3.23,2.13-4.6C901.27,573.37,899.71,569.49,898.28,565.06Zm10.78-57.86c-5.06-2-10.19-3.45-14.73-6-4.75-2.64-8.81-6.51-13.4-9.48A98.16,98.16,0,0,0,867.09,484c-7.26-3.14-17.8-3.22-22.4-.86.2.24.37.66.6.7,14.75,2.84,25.58,11.05,33.81,23.48,4.57,6.9,11.55,11,19.76,12.42,1.41.25,3.8-.42,4.47-1.47C905.6,514.62,907.32,510.66,909.06,507.2Zm21.06-21.65c-4.27-4.3-8.71-8.06-12.24-12.53-3.27-4.14-5.64-9-8.27-13.61-6.9-12.08-17.26-19.19-31.38-22.3.65,1.1.79,1.67,1.15,1.89,13.07,8,20,19.91,22.93,34.67,1.51,7.58,5.94,13.59,12,18.44,3,2.38,5.37,3.22,8.34-.24C924.88,489.28,927.92,487.37,930.12,485.55Zm85.91-1.86c2.56-5.82,4.61-11.62,7.6-16.89,2.51-4.44,6.08-8.3,9.23-12.37,8.06-10.42,11.37-25.88,7.62-35.8-.24.18-.66.33-.7.55-2.48,15.49-11.24,26.54-24,35.09-6.6,4.43-10.19,11.32-11.93,19-.33,1.47.13,4.08,1.13,4.71A120.73,120.73,0,0,0,1016,483.69ZM932.59,614.77c-2.45,5.75-4.27,11.31-7.11,16.28-2.7,4.73-6.42,8.89-9.78,13.24-7.75,10-11,25.19-7.51,35.69.35-.44.81-.75.87-1.13,2.43-14.73,10.53-25.47,22.78-33.68a30.52,30.52,0,0,0,13-20c.29-1.49-.57-4-1.75-4.82A104.52,104.52,0,0,0,932.59,614.77Zm26.14-141.83c-7.61-9.09-8.57-19.83-9.82-30.59A57.53,57.53,0,0,0,945,428c-3.18-8-11-16.2-16.37-18,0,.32-.07.72.08.94,8.68,12.22,11,25.56,8,40.24a30.58,30.58,0,0,0,4.75,23.37c.87,1.31,3.21,2.77,4.51,2.49C950.14,476.15,954.12,474.49,958.73,472.94Zm61.92,216.42c-9.21-12.88-11.89-26.76-8.67-42.21,1.71-8.22-.46-16.23-5.16-23.28-.82-1.22-3-2.57-4.17-2.31-4.27.94-8.39,2.56-12.85,4,7.29,8.53,8.79,18.52,9.67,28.69C1000.77,669.44,1007.73,681.2,1020.65,689.36Zm48.77-28.18c-.46-1.16-.51-1.8-.83-2-12.91-8.21-19.5-20.31-22.43-35-1.54-7.75-6.37-13.85-12.88-18.37-1.27-.88-3.84-1.65-4.76-1a127.53,127.53,0,0,0-10,8.5c3.73,3.42,7.52,6,10.16,9.53a162.44,162.44,0,0,1,10.38,16.39C1045.88,650.82,1055.69,658.11,1069.42,661.18Zm-106.08,36a17.46,17.46,0,0,0,.21-3.11c-3.26-14.49-.18-27.57,8.11-39.8,4.76-7,6-15.09,4.41-23.41-.29-1.48-2-3.56-3.28-3.82a114.2,114.2,0,0,0-12.45-1.16c0,6.25.49,12.32-.14,18.28-.54,5.06-2.3,10-3.63,15C953,672.35,955.47,684.51,963.34,697.14ZM1113.6,504.66a7.28,7.28,0,0,0-1.72-.33,4,4,0,0,0-1.37.55c-12.06,7.93-25,9.69-39.08,6.63-8-1.75-15.86.53-22.77,5.09-1.16.76-2.58,2.7-2.34,3.74,1,4.42,2.61,8.71,3.77,12.32,5.43-2.24,10.29-4.78,15.47-6.22s10.75-2,16.17-2.65C1095,522.15,1105.32,515.69,1113.6,504.66ZM828.7,538c16.31-3.84,30,1.82,43.69,9.81,5.16,3,12.41,2.63,18.76,3.38,4.28.51,6.14-1.81,6-6.23a75.94,75.94,0,0,1,.76-9.41c-5.89,0-11.68.49-17.34-.15-5.07-.57-10-2.36-15-3.66C852.44,528.31,840.1,529.94,828.7,538ZM985.39,401.59a12.24,12.24,0,0,0-.31,2.59c3.36,14.65.25,27.88-8.12,40.26-4.74,7-5.77,15.06-4.48,23.43.41,2.67,1.39,4.33,4.42,4.09,2.69-.2,5.89,1.63,7.05-3,2.66-10.61,5.93-21.06,8.56-31.67C995.6,424.85,992.67,413.38,985.39,401.59Z" transform="translate(-812.45 -388.23)"/><path class="cls-1" d="M973.66,552.77l-.13.9-1,.9H971l-.77-.13-1.49.13-1,.71-.77.52-.52.39-2.77.9-2.52.51-2.39.59-2.64.38-1.61.13-.65,1.29v11.68l.26,2.9-.9,1.42-1.75.91-.38.32.13,1.16.64,1.87v2.39l-1.68,1.29v1.87l.52,2.39.52,3.29.51,1.55-.26,1.48v1.55l-.38,1.87-.25,1.49-.26.77h-1l-.64-.13-.25-.64-.89-2.26V594.9l.89-2-.51-2.52-.13-2.38-.51-1.94.13-2.52-.13-3.29-.7-2.13v-2.9l-.26-3.16-.13-3.49.13-3.29.26-3-.65-1.68-.25-1.09-1.3-.13-1.49-.52-3-.13-2.26-.39-3.17.39-2.52.13-1.43.9-1.61,1-1.75,1-2.2,1L924,563l-.77-.51-1.1-.26-.78-1,.13-1.74-.26-2,.65-1.94,1-2.13.39-1.61,1-2.52,1-1.55,1.68-3,.84-3,.9-2.78.13-2.13v-2.13l.52-1.87,1.35-1.8,1-1,.91-1.55,1.61-2.65,1-1.87.65-2.25,1.22-3.68.78-1.62-.13-1.54.26-.39.26-1.36.25-1.8,1.36-1.36,1.87-1,1.16-.13,1,.13H945l1.42.65,2,1,2.39,1.87,1,2-.38,1.16-.39,1.36-.51.64-.51,1.16-1.6,1.62-1.41,2-1.34,1.93L944,526.05l-1.29,2.26-1.36,2.13-1,1.16-.64.26-.39,1.61-.71,1.55-.52,2-.26,1.62-2.13,3.29-.64,1.8-1.16,1.87-1.23,1.62-.9,1.29-.52,1.74-.38,1.16.25.77.78.46,1.61.51,1.94.26h1.87l1.87.26,1.81-.26,1.87-.13,1.29-.13.7-.51v-2.26l-.7-1.74.45-3.17,1.29-2.25-.13-2.26v-3l.13-1v-2l.38-1.55,1-.71h1l1,.71,1,1.29,1.27,1,.9,1.22.32,1.87v4.07l-.13,1.61v1.81l.13,1.48v1.42l-.13,1.1.52.64.77,1.29,1,.33,1.49-.33,1.55-.38H968l.77-.65,2,.39,1.74-.65v.91l1,.38ZM968,549.15l-.26.45-1-.32v-.64l.9-.13Z" transform="translate(-812.45 -388.23)"/><path class="cls-1" d="M1027.54,534l-.26,3.94.13,2.25-.39,3.55v2.39l-.77,2.77v2.52l-.78,1.87.13,2-1.1,2.32.39,1.23-.51.9-.39,2-.13,3.3-1.16,2.25-.71,2.39-.52,2.52-.9,1-.9,2.65-1.36,2.77-2,2.77-2.26,2.39-2.45,2-2.9,1-3.1.65-2.78.39H999.4l-3.54-.39-2.39-.65-2.13-1.29-2.13-1.22-1.55-2-1.22-2.2-.91-2.51-.9-2.26-.26-2.78-.39-2.64-.32-2.78.32-3.54V560.7l.26-3.22.65-1.81-.52-1.23v-1.8l.9-1.87.26-2.65-.13-2,.52-2.9.71-2.78v-2.51l.64-2.65v-2.77l-1.35-2.2-.52-2.51-.13-1.36.65-2.39,1.1-1.55.9-.38,2.26-1.1,2.64-.39,2.52.52,2.06,1.35,1.23.91.65.9,1.35,1.1.65,1.68-.13,2.38-1.36,2.39L998.37,534l-1.48,2.77-.52,2-.77,3.68-1.49,3.16-.9,3.55-.9,3.36-1,3-.9,3.29-.13,3.68-.78,2.9.65,3.87.13,4.71.51,3.23,1.36,2.07,1.93,1.61,1.1.9,1.68.52,3.29.71,2.26.26,2.38-.13,4.26-.84,3.29-2.07,1.87-2,1.42-2.26,1.49-1.87.13-1.8.9-1.23,1.16-2.77.84-2.39.52-2.32,1.29-2.26-.13-1.36.13-1.29,1.09-1.35-.38-2.2.9-3.61.39-3,.9-2.65-.39-3,.52-2.65.19-3.16-.19-2.51V532l.58-2-.71-.9.32-1.42-.32-1.62.13-1.48.19-1.81.26-1.87v-1l1.16-.39.39.52-.39,1.8.26,2.78v1.48l.39,3.55Zm6,1.29-.33,1h-1.16l-.51-1.23.64-1.29,1,.26Z" transform="translate(-812.45 -388.23)"/></svg>